<?xml version="1.0" encoding="utf-8"?>
<!-- Generator: Adobe Illustrator 18.0.0, SVG Export Plug-In . SVG Version: 6.00 Build 0)  -->
<!DOCTYPE svg PUBLIC "-//W3C//DTD SVG 1.1//EN" "http://www.w3.org/Graphics/SVG/1.1/DTD/svg11.dtd">
<svg version="1.1" id="Capa_1" xmlns="http://www.w3.org/2000/svg" xmlns:xlink="http://www.w3.org/1999/xlink" x="0px" y="0px"
	 viewBox="0 614.7 74.1 77.4" enable-background="new 0 614.7 74.1 77.4" xml:space="preserve">
<g id="Down">
	<g>
		<path fill="#65E0CB" d="M53.3,654.8c-1.2,0-2.4,0.5-3.1,1.4l0,0l-12.5,13.7L25,656.2l0,0c-0.8-0.9-1.9-1.4-3.1-1.4
			c-2.4,0-4.3,1.9-4.3,4.3c0,1.1,0.4,2.1,1.1,2.9l0,0l15.7,17.1c0.8,0.9,2,1.4,3.2,1.4s2.3-0.5,3.2-1.4L56.4,662l0,0
			c0.7-0.8,1.1-1.8,1.1-2.9C57.5,656.7,55.6,654.8,53.3,654.8z"/>
		<path fill="#65E0CB" d="M53.3,629.1c-1.2,0-2.4,0.5-3.1,1.4l0,0l-12.5,13.7L25,630.5l0,0c-0.8-0.9-1.9-1.4-3.1-1.4
			c-2.4,0-4.3,1.9-4.3,4.3c0,1.1,0.4,2.1,1.1,2.9l0,0l15.7,17.1c0.8,0.9,2,1.4,3.2,1.4s2.3-0.5,3.2-1.4l15.7-17.1l0,0
			c0.7-0.8,1.1-1.8,1.1-2.9C57.5,631.1,55.6,629.1,53.3,629.1z"/>
	</g>
</g>
</svg>
